<?xml version="1.0" encoding="UTF-8" standalone="no"?>
<svg
   xmlns:dc="http://purl.org/dc/elements/1.1/"
   xmlns:cc="http://creativecommons.org/ns#"
   xmlns:rdf="http://www.w3.org/1999/02/22-rdf-syntax-ns#"
   xmlns:svg="http://www.w3.org/2000/svg"
   xmlns="http://www.w3.org/2000/svg"
   xmlns:sodipodi="http://sodipodi.sourceforge.net/DTD/sodipodi-0.dtd"
   xmlns:inkscape="http://www.inkscape.org/namespaces/inkscape"
   version="1.0"
   width="1145.000000pt"
   height="429.000000pt"
   viewBox="0 0 1145.000000 429.000000"
   preserveAspectRatio="xMidYMid meet"
   id="svg4624"
   sodipodi:docname="logo.svg"
   inkscape:version="0.92.5 (2060ec1f9f, 2020-04-08)">
  <defs
     id="defs4628" />
  <sodipodi:namedview
     pagecolor="#ffffff"
     bordercolor="#666666"
     borderopacity="1"
     objecttolerance="10"
     gridtolerance="10"
     guidetolerance="10"
     inkscape:pageopacity="0"
     inkscape:pageshadow="2"
     inkscape:window-width="1600"
     inkscape:window-height="900"
     id="namedview4626"
     showgrid="false"
     inkscape:zoom="0.22991266"
     inkscape:cx="763.33333"
     inkscape:cy="286"
     inkscape:window-x="0"
     inkscape:window-y="0"
     inkscape:window-maximized="1"
     inkscape:current-layer="svg4624" />
  <metadata
     id="metadata4618">
Created by potrace 1.16, written by Peter Selinger 2001-2019
<rdf:RDF>
  <cc:Work
     rdf:about="">
    <dc:format>image/svg+xml</dc:format>
    <dc:type
       rdf:resource="http://purl.org/dc/dcmitype/StillImage" />
  </cc:Work>
</rdf:RDF>
</metadata>
  <g
     transform="translate(0.000000,429.000000) scale(0.100000,-0.100000)"
     fill="#000000"
     stroke="none"
     id="g4622"
     style="fill:#e3e3e3;fill-opacity:1">
    <path
       d="M4086 4275 c-31 -11 -191 -165 -745 -717 -388 -387 -1295 -1290 -2014 -2007 -720 -717 -1313 -1314 -1318 -1328 -27 -72 2 -157 67 -195 30 -17 255 -18 5649 -18 5538 0 5618 0 5649 19 17 11 40 35 51 53 20 33 20 51 20 2063 0 1955 -1 2031 -18 2060 -11 17 -35 42 -55 55 l-36 25 -3605 2 c-3075 2 -3612 0 -3645 -12z m584 -334 c234 -52 445 -141 645 -272 113 -73 190 -135 177 -142 -4 -3 -252 -150 -552 -329 -300 -178 -566 -337 -592 -352 l-48 -28 0 577 0 578 138 -6 c84 -3 173 -13 232 -26z m1689 -553 c0 -326 -4 -574 -9 -563 -4 11 -18 47 -31 80 -38 104 -135 291 -204 396 -96 148 -163 229 -294 359 -118 118 -174 164 -310 258 l-76 52 463 0 462 0 -1 -582z m2381 -340 c0 -507 -2 -919 -4 -917 -3 2 -231 229 -508 504 -277 275 -692 688 -924 918 l-420 417 928 0 928 0 0 -922z m2390 -903 l0 -1825 -282 0 -283 1 -758 752 -758 752 1 1073 0 1072 1040 0 1040 0 0 -1825z m-7150 1038 l0 -558 -1348 -803 c-741 -441 -1367 -814 -1392 -829 -59 -34 -50 -25 1250 1270 1439 1433 1483 1477 1487 1477 2 0 3 -251 3 -557z m4087 -832 l673 -666 0 -667 c0 -366 -3 -673 -6 -682 -6 -14 -106 -16 -1035 -16 l-1029 0 0 1706 0 1707 363 -359 c199 -197 665 -657 1034 -1023z m-2229 799 c130 -196 224 -418 279 -663 26 -115 27 -136 27 -372 0 -236 -1 -257 -27 -372 -50 -222 -139 -443 -250 -620 l-33 -53 -717 718 -718 718 243 146 c134 80 362 216 508 303 146 87 335 200 420 251 l155 93 28 -32 c15 -17 53 -70 85 -117z m-1858 -1865 l0 -965 -1620 0 c-891 0 -1620 2 -1620 5 0 2 33 23 73 46 67 39 168 99 852 507 143 85 364 217 490 292 127 76 347 207 490 292 469 280 786 469 1025 611 129 77 249 148 265 158 17 10 33 19 38 19 4 0 7 -434 7 -965z m1240 -50 l915 -915 -918 0 -917 0 0 915 c0 503 1 915 3 915 1 0 414 -412 917 -915z m1138 -471 l-3 -214 -147 147 -147 148 60 95 c72 113 176 318 210 413 l24 68 3 -221 c1 -122 1 -318 0 -436z m3482 -168 l275 -276 -533 0 -532 0 0 526 0 526 258 -250 c141 -138 381 -375 532 -526z"
       id="path4620"
       style="fill:#e3e3e3;fill-opacity:1" />
  </g>
</svg>
